<svg width="209" height="500" viewBox="0 0 209 500" fill="none" xmlns="http://www.w3.org/2000/svg">
<path d="M191.156 0C190.926 2.45256 189.863 4.02196 188.55 6.02608C187.767 7.23312 187.767 7.23312 187.072 9.03375C185.883 11.7477 184.329 14.6378 182.126 16.6699C180.586 18.3238 179.648 20.4407 178.602 22.433C177.387 24.6542 176.17 26.0005 174.134 27.4791C170.354 30.8285 169.274 36.3503 168.643 41.2186C168.628 42.1345 168.624 43.0508 168.643 43.9665C168.89 43.5337 169.137 43.1008 169.392 42.6549C171.384 39.2781 173.428 36.2646 176.056 33.3527C178.692 30.4179 180.438 27.3531 182.021 23.7441C183.236 21.037 183.236 21.037 184.689 20.0834C185.011 19.9849 185.333 19.8864 185.665 19.7849C186.209 20.1477 186.752 20.5104 187.312 20.8841C187.459 20.476 187.607 20.068 187.758 19.6476C188.407 18.1452 188.924 17.1136 190.058 15.9379C191.143 15.5338 192.244 15.1736 193.352 14.8387C195.424 13.9516 197.274 13.1122 198.877 11.5069C200.315 10.0683 201.918 9.56093 203.785 8.79331C204.379 8.31723 204.379 8.31723 204.986 7.83154C205.981 7.14456 205.981 7.14456 207.217 7.31631C207.692 7.50334 207.692 7.50334 208.178 7.69415C207.815 8.96368 207.453 10.2332 207.079 11.5412C207.442 11.7226 207.804 11.9039 208.178 12.0908C205.773 14.7038 205.773 14.7038 203.957 15.4226C202.608 15.802 202.608 15.802 202.206 16.9683C201.39 18.512 200.239 18.9538 198.734 19.7463C197.26 20.6229 196.19 21.8593 194.999 23.0824C194.501 23.3771 194.003 23.6719 193.489 23.9755C192.083 24.6531 192.083 24.6531 191.705 26.3799C192.067 26.3799 192.43 26.3799 192.803 26.3799C192.803 26.7427 192.803 27.1054 192.803 27.4791C193.89 27.4791 194.978 27.4791 196.098 27.4791C196.098 28.2045 196.098 28.93 196.098 29.6774C195.554 30.0401 195.01 30.4029 194.45 30.7766C194.292 31.3207 194.133 31.8648 193.97 32.4253C193.766 32.9694 193.562 33.5135 193.352 34.0741C192.449 34.4683 191.532 34.8343 190.607 35.1732C190.346 35.6153 190.086 36.0574 189.817 36.5128C188.725 38.3065 187.509 38.647 185.665 39.5699C185.579 39.9255 185.494 40.2812 185.405 40.6476C185.116 41.7682 185.116 41.7682 183.297 42.9017C181.851 43.6059 180.77 43.9624 179.159 44.1039C177.125 44.3142 175.916 44.5707 174.134 45.6153C171.752 48.7462 170.185 52.4581 168.643 56.0573C168.978 56.0879 169.313 56.1184 169.658 56.1498C170.099 56.1937 170.541 56.2376 170.996 56.2828C171.433 56.3246 171.87 56.3664 172.32 56.4096C174.623 56.7689 176.346 57.7218 177.978 59.3548C178.003 60.6369 177.999 61.9197 177.978 63.2019C178.068 63.8367 178.159 64.4714 178.252 65.1255C178.527 67.049 178.527 67.049 178.413 68.7965C178.558 71.4683 179.451 73.2654 180.62 75.6362C188.691 92.8042 196.256 112.358 198.294 131.35C198.354 131.898 198.414 132.445 198.476 133.01C199.67 145.419 198.428 157.936 190.532 168.022C187.892 171.135 185.777 173.318 181.57 173.833C171.198 174.353 161.276 166.871 153.269 161.027C152.764 160.667 152.259 160.306 151.739 159.935C145.237 155.262 139.016 150.315 132.952 145.09C133.328 147.385 134.071 149.416 134.908 151.582C136.292 155.428 136.967 157.909 135.56 161.852C135.05 162.874 134.534 163.895 133.982 164.896C132.747 167.183 132.747 167.183 132.334 169.718C133.231 171.463 134.476 171.852 136.247 172.569C136.066 172.931 135.884 173.294 135.698 173.668C133.152 174.379 131.536 174.102 129.109 173.118C129.126 174.138 129.126 174.138 129.143 175.179C129.164 176.425 129.161 177.366 128.749 178.547C128.49 180.14 128.961 180.657 129.874 181.965C130.17 182.4 130.466 182.835 130.77 183.283C131.094 183.749 131.418 184.214 131.751 184.694C137.573 193.378 141.93 202.354 145.581 212.139C145.764 212.611 145.946 213.083 146.134 213.57C147.552 217.317 148.578 221.079 149.459 224.985C149.671 225.914 149.671 225.914 149.886 226.862C156.085 254.814 152.738 283.211 149.755 311.343C148.802 320.344 147.945 329.34 147.332 338.371C147.3 338.827 147.269 339.284 147.236 339.755C147.028 342.83 146.845 345.906 146.679 348.984C146.654 349.464 146.628 349.944 146.601 350.438C146.151 358.988 146.019 367.525 146.027 376.086C146.028 376.733 146.028 377.38 146.028 378.047C145.279 432.708 145.279 432.708 166.116 480.569C166.407 480.854 166.697 481.14 166.996 481.434C170.693 485.134 170.693 485.134 171.114 487.136C170.779 488.895 170.073 489.646 168.652 490.706C165.449 492.501 161.805 492.949 158.21 493.353C153.502 493.999 149.312 496.057 145.028 498.022C137.95 500.925 129.354 498.825 122.305 496.927C115.576 495.123 109.107 495.532 102.306 496.547C93.4716 497.833 86.0949 497.603 77.494 495.173C76.9342 495.017 76.3743 494.86 75.7974 494.699C74.8342 494.429 73.8711 494.159 72.9083 493.887C70.259 493.226 67.5639 492.826 64.865 492.425C64.8876 492.947 64.9103 493.468 64.9336 494.005C64.865 495.723 64.865 495.723 63.7668 496.822C62.12 497.089 60.5176 497.29 58.8593 497.44C58.1208 497.509 58.1208 497.509 57.3674 497.579C46.1057 498.548 35.0787 497.623 23.9577 495.723C23.4231 495.632 22.8885 495.54 22.3378 495.446C19.9261 495.013 17.6782 494.584 15.4468 493.524C15.432 492.437 15.4213 491.349 15.4125 490.261C15.4061 489.656 15.3997 489.05 15.3932 488.426C15.4468 486.93 15.4468 486.93 15.9959 486.38C17.7801 486.268 19.5603 486.19 21.3474 486.144C24.8526 485.988 27.4717 485.231 30.135 482.808C32.7372 479.286 33.1031 474.89 33.3318 470.643C33.3543 470.238 33.3769 469.833 33.4001 469.416C33.6523 464.438 33.635 459.461 33.6204 454.477C33.6194 453.404 33.6185 452.331 33.618 451.257C33.6163 448.958 33.6128 446.659 33.6081 444.36C33.6005 440.678 33.5974 436.996 33.5948 433.313C33.5882 424.792 33.5763 416.27 33.5639 407.748C33.5499 398.139 33.5385 388.529 33.5325 378.919C33.532 378.294 33.5316 377.669 33.5312 377.025C33.5195 358.911 33.6072 340.802 33.9206 322.691C34.0408 315.725 34.1438 308.761 34.1548 301.794C34.1566 300.709 34.1598 299.624 34.1631 298.539C34.16 289.488 33.6386 280.284 27.4903 273.071C23.8265 269.523 19.8376 268.821 14.8977 268.196C14.8977 265.113 14.8977 262.03 14.8977 258.853C15.7018 258.672 16.5058 258.49 17.3343 258.303C17.7866 258.201 18.2389 258.099 18.7049 257.994C20.9214 257.678 23.0957 257.71 25.3304 257.754C25.1292 257.252 24.9279 256.75 24.7206 256.232C23.9435 254.293 23.1672 252.353 22.391 250.414C22.0392 249.535 21.6872 248.656 21.3351 247.778C19.5457 243.313 17.7604 238.847 16.0388 234.356C13.2802 227.17 10.279 220.18 6.98025 213.23C1.56003 201.695 -2.58669 190.221 1.91685 177.68C2.21462 176.891 2.51513 176.104 2.8177 175.317C2.99996 174.837 3.18222 174.358 3.37001 173.864C4.98818 169.614 4.98818 169.614 5.73903 167.722C7.15928 164.201 7.15928 164.201 7.75952 160.478C6.48962 158.886 6.48962 158.886 5.01406 157.73C5.60296 157.73 6.19186 157.73 6.79861 157.73C8.80455 157.402 8.80455 157.402 9.58267 156.339C11.8524 152.098 11.792 148.273 10.7795 143.692C9.77476 138.75 10.9227 134.695 13.2504 130.251C14.6433 128.197 16.2273 126.299 17.804 124.386C19.8436 121.909 21.5298 119.288 23.1341 116.511C23.3276 116.199 23.5212 115.886 23.7207 115.564C26.7336 110.657 28.0205 106.733 27.606 100.929C27.3351 96.9813 28.1538 94.3559 30.4052 91.0975C32.0959 89.4053 33.7231 88.3945 35.8318 87.3148C39.0208 85.7028 39.0208 85.7028 41.2541 82.9869C41.5882 81.0471 41.7791 79.1826 41.8589 77.2184C42.0544 73.8355 42.6117 71.6271 45.0977 69.2473C46.621 68.0931 48.1765 66.9976 49.7457 65.9069C51.9729 64.2169 52.9973 62.5644 53.8831 59.9044C53.9671 58.9447 54.0502 57.985 54.1262 57.0246C54.5176 52.573 55.6575 49.3704 57.8362 45.4199C58.9837 43.2402 59.6243 40.9779 60.2663 38.6081C62.4681 30.6581 66.2206 24.7275 73.2365 20.0791C80.9476 15.7767 88.8571 14.717 97.3514 17.0111C107.122 19.8219 107.122 19.8219 109.753 22.3611C112.636 27.6989 112.636 27.6989 112.636 29.6774C113.024 29.8304 113.412 29.9835 113.811 30.1411C115.4 30.7842 116.972 31.4554 118.539 32.1505C119.068 32.3829 119.597 32.6153 120.143 32.8547C121.421 33.5245 121.421 33.5245 121.97 34.6237C122.119 36.8073 122.079 38.9607 121.696 41.1156C121.365 42.8001 121.365 42.8001 121.52 44.2456C121.768 47.9764 121.168 50.4201 119.499 53.6873C117.277 57.9782 117.277 57.9782 117.578 62.6523C118.521 64.5977 119.655 66.3648 120.872 68.1481C122.725 70.8905 123.638 73.0827 123.069 76.3919C122.528 77.6777 121.979 78.9602 121.421 80.2389C120.917 82.0912 120.917 82.0912 121.421 84.086C122.46 85.6198 123.586 87.0088 124.8 88.4075C126.874 90.8083 126.34 92.9783 126.222 96.033C126.384 98.0877 126.731 98.9694 128.01 100.573C129.553 101.774 129.553 101.774 131.339 102.875C136.077 106.003 139.822 109.96 143.494 114.268C145.094 116.119 146.764 117.904 148.425 119.699C149.425 120.908 149.425 120.908 149.974 122.557C150.7 122.935 151.433 123.299 152.17 123.656C152.976 124.382 153.764 125.129 154.538 125.889C156.841 128.005 159.209 129.687 161.882 131.281C162.221 131.484 162.56 131.687 162.909 131.895C165.126 133.184 167.379 134.202 169.741 135.197C169.695 131.183 169.642 127.17 169.583 123.156C169.556 121.291 169.531 119.427 169.51 117.562C169.861 100.28 169.861 100.28 162.603 85.1852C162.603 88.6311 162.603 92.0769 162.603 95.6272C162.241 95.4459 161.878 95.2645 161.505 95.0777C161.478 95.5884 161.451 96.0992 161.423 96.6255C161.016 103.374 161.016 103.374 159.858 106.619C159.676 106.619 159.495 106.619 159.309 106.619C159.49 100.997 159.671 95.3744 159.858 89.5818C159.676 92.665 159.495 95.7481 159.309 98.9247C159.127 98.9247 158.946 98.9247 158.759 98.9247C158.397 96.567 158.035 94.2093 157.661 91.7802C156.574 95.4074 155.487 99.0346 154.367 102.772C154.004 102.59 153.642 102.409 153.269 102.222C153.993 99.1391 154.718 96.0559 155.465 92.8793C154.65 93.4234 154.65 93.4234 153.818 93.9785C154.633 90.1699 154.633 90.1699 155.465 86.2843C154.65 86.8284 154.65 86.8284 153.818 87.3835C154.055 86.9244 154.055 86.9244 154.298 86.4561C154.939 85.1385 155.484 83.8025 156.014 82.4373C155.606 82.4033 155.199 82.3693 154.779 82.3342C152.712 81.7232 152.198 80.9719 151.072 79.1398C150.826 77.5365 150.888 75.9816 150.969 74.3653C151.223 71.4461 151.223 71.4461 150.523 68.6977C150.396 67.4335 150.314 66.1703 150.236 64.9022C150.064 63.5386 150.064 63.5386 148.327 62.6523C148.052 60.8318 148.052 60.8318 148.327 58.8053C149.699 57.1909 149.699 57.1909 151.072 56.0573C150.857 55.4793 150.642 54.9012 150.42 54.3056C149.974 52.2103 149.974 52.2103 150.557 50.6302C151.621 49.4624 151.621 49.4624 152.891 48.8784C155.047 48.9286 156.002 49.7621 157.661 51.1111C158.178 51.695 158.682 52.2905 159.171 52.8973C159.579 53.396 159.987 53.8947 160.407 54.4086C160.769 54.4086 161.132 54.4086 161.505 54.4086C161.901 52.1418 162.291 49.8743 162.678 47.6059C162.81 46.8361 162.943 46.0664 163.077 45.297C164.202 38.8537 164.544 33.8862 162.738 27.5778C162.047 24.9447 162.055 23.4651 163.152 20.8841C163.443 19.5969 163.695 18.3076 163.942 17.0113C164.25 15.9379 164.25 15.9379 165.349 14.8387C165.803 13.3175 166.153 11.7842 166.513 10.2381C167.013 8.74277 167.376 8.06369 168.643 7.14456C169.187 7.14456 169.73 7.14456 170.29 7.14456C170.653 6.23775 171.015 5.33094 171.389 4.39665C171.932 4.39665 172.476 4.39665 173.036 4.39665C173.699 7.29439 173.484 8.80882 172.319 11.5133C171.902 12.7454 171.86 13.6812 171.903 14.9761C171.938 17.037 171.938 17.037 171.416 18.0052C170.602 19.7418 170.58 21.5062 170.428 23.3916C170.142 26.2959 169.748 28.3735 168.094 30.8453C165.5 34.9887 165.711 39.9695 165.444 44.7206C165.303 46.8608 165.054 48.9817 164.799 51.1111C164.843 50.7806 164.887 50.4501 164.931 50.1096C165.916 42.9034 167.326 36.1546 169.889 29.3329C171.1 26.0241 171.644 23.1068 171.73 19.5762C171.972 17.8982 172.39 17.1293 173.585 15.9379C174.129 15.9379 174.672 15.9379 175.232 15.9379C175.278 15.4391 175.323 14.9404 175.369 14.4265C175.835 12.4095 176.374 11.7068 177.978 10.4421C178.34 10.4421 178.702 10.4421 179.076 10.4421C179.263 9.55791 179.263 9.55791 179.453 8.65591C180.273 6.31228 180.974 5.83376 182.919 4.39665C183.248 3.8299 183.576 3.26314 183.915 2.67921C185.807 0.190295 188.067 0 191.156 0ZM185.116 3.29749C183.86 4.30808 183.86 4.30808 183.949 5.83931C183.972 6.27004 183.994 6.70078 184.018 7.14456C184.921 6.46963 184.921 6.46963 185.665 5.49582C185.54 4.30708 185.54 4.30708 185.116 3.29749ZM170.839 7.69415C170.477 9.14504 170.115 10.5959 169.741 12.0908C170.104 12.0908 170.466 12.0908 170.839 12.0908C171.583 10.6021 171.424 9.33776 171.389 7.69415C171.207 7.69415 171.026 7.69415 170.839 7.69415ZM181.272 7.69415C180.654 8.70144 180.654 8.70144 180.174 9.89247C180.355 10.4366 180.536 10.9806 180.723 11.5412C181.99 10.0488 181.99 10.0488 181.615 8.69026C181.502 8.36154 181.389 8.03283 181.272 7.69415ZM185.116 7.69415C184.357 8.58791 183.623 9.50364 182.919 10.4421C184.553 10.6156 184.553 10.6156 185.493 9.68638C186.329 8.84213 186.329 8.84213 186.214 7.69415C185.852 7.69415 185.489 7.69415 185.116 7.69415ZM168.094 9.34289C166.997 11.6075 166.898 13.4383 166.996 15.9379C167.358 15.9379 167.721 15.9379 168.094 15.9379C168.456 13.7615 168.819 11.5852 169.192 9.34289C168.83 9.34289 168.467 9.34289 168.094 9.34289ZM199.941 12.0908C199.035 12.9976 198.129 13.9044 197.196 14.8387C198.912 15.0241 198.912 15.0241 200.044 13.7395C200.373 13.3768 200.701 13.0141 201.039 12.6404C200.677 12.459 200.315 12.2777 199.941 12.0908ZM177.429 12.6404C176.247 14.4144 176.22 14.9948 176.33 17.037C177.739 15.6271 177.725 14.5766 177.978 12.6404C177.796 12.6404 177.615 12.6404 177.429 12.6404ZM181.821 12.6404C180.955 13.4961 180.955 13.4961 180.105 14.5639C179.81 14.921 179.514 15.278 179.209 15.6459C178.984 15.9236 178.759 16.2013 178.527 16.4875C180.951 15.7896 180.951 15.7896 182.919 14.2891C182.919 13.745 182.919 13.201 182.919 12.6404C182.557 12.6404 182.195 12.6404 181.821 12.6404ZM203.785 12.6404C202.037 13.6691 202.037 13.6691 200.49 14.8387C201.034 15.0201 201.578 15.2014 202.138 15.3883C203.885 14.3596 203.885 14.3596 205.432 13.19C204.889 13.0086 204.345 12.8272 203.785 12.6404ZM170.29 14.2891C168.552 16.5329 168.552 16.5329 168.094 19.2354C169.227 18.9677 169.227 18.9677 170.29 18.1362C170.74 16.1786 170.74 16.1786 170.839 14.2891C170.658 14.2891 170.477 14.2891 170.29 14.2891ZM193.901 15.9379C193.358 16.482 192.814 17.026 192.254 17.5866C192.435 17.9493 192.616 18.3121 192.803 18.6858C193.528 17.9603 194.253 17.2349 194.999 16.4875C194.637 16.3061 194.275 16.1247 193.901 15.9379ZM165.349 16.4875C164.888 19.046 164.791 21.0879 165.349 23.632C166.563 23.1833 166.563 23.1833 166.859 21.9146C167.033 19.9059 166.53 18.3856 165.898 16.4875C165.716 16.4875 165.535 16.4875 165.349 16.4875ZM194.999 18.1362C194.999 18.4989 194.999 18.8616 194.999 19.2354C197.459 18.9897 197.459 18.9897 199.392 17.5866C197.683 17.5866 196.588 17.682 194.999 18.1362ZM67.0613 28.0287C63.5929 32.2702 61.9141 36.9565 61.0213 42.3178C61.2025 42.8619 61.3837 43.406 61.5704 43.9665C63.858 43.2934 65.8219 42.3422 67.1066 40.2512C67.8936 38.6679 68.5864 37.0516 69.2797 35.4255C71.043 31.3537 73.2938 27.6812 77.494 25.8303C76.9391 26.2611 76.3842 26.6918 75.8125 27.1356C72.3374 30.1199 69.5834 34.106 68.1595 38.4707C68.3407 39.0148 68.5219 39.5589 68.7086 40.1195C72.2108 37.8631 72.2108 37.8631 75.4693 35.2763C76.8636 34.1404 77.4586 33.8585 79.1413 33.5245C75.0733 37.2226 70.7207 40.0137 65.9605 42.7295C62.5897 44.6773 59.93 46.6693 57.8641 50.0463C57.6404 50.4041 57.4167 50.7618 57.1863 51.1304C56.0015 53.4246 56.0048 55.596 55.9079 58.1526C55.4752 63.8952 55.4752 63.8952 53.3341 65.9498C52.1541 66.7851 50.9717 67.5944 49.765 68.3886C46.37 70.5927 46.37 70.5927 44.2676 73.951C43.7614 76.4844 43.6989 79.0434 43.6542 81.6193C43.4307 83.7215 43.1469 84.6655 41.8032 86.2843C40.5574 87.0743 39.3705 87.7527 38.0625 88.414C33.9962 90.6024 31.1722 92.7814 29.7231 97.276C29.5913 98.9939 29.5913 98.9939 29.6545 100.745C29.6644 101.333 29.6743 101.92 29.6845 102.525C29.6973 102.969 29.71 103.413 29.7231 103.871C31.6257 102.783 31.6257 102.783 33.5668 101.673C33.5668 101.31 33.5668 100.947 33.5668 100.573C33.9971 100.539 34.4275 100.505 34.8709 100.47C38.61 99.6316 41.9794 97.9577 44.5486 95.0777C47.11 94.2231 49.6877 94.579 52.3667 94.6698C54.6166 94.5154 55.8592 94.131 57.7268 92.8793C58.5578 91.6684 58.5578 91.6684 59.0652 90.2688C60.1823 87.7757 61.4523 86.2823 63.4472 84.4553C64.799 83.0254 65.3235 81.5348 65.9631 79.6894C66.1443 79.6894 66.3255 79.6894 66.5122 79.6894C66.6047 80.6625 66.696 81.6357 66.7868 82.609C66.8377 83.151 66.8887 83.6929 66.9412 84.2513C67.0613 85.7348 67.0613 85.7348 67.0613 87.3835C67.4237 87.3835 67.7861 87.3835 68.1595 87.3835C70.3863 84.2325 70.9633 81.0187 71.6128 77.2828C72.0031 75.2927 72.0031 75.2927 72.593 73.6676C73.2209 71.6018 73.2419 69.6657 73.2043 67.5299C73.2039 67.1438 73.2036 66.7577 73.2032 66.3599C73.1874 64.5014 73.127 62.78 72.5522 61.0036C72.1898 61.0036 71.8274 61.0036 71.454 61.0036C71.4066 61.3557 71.3592 61.7078 71.3103 62.0705C70.8214 65.0833 70.1678 67.1186 68.256 69.5006C67.4097 70.6094 66.9508 71.7775 66.5122 73.0944C66.6773 70.8917 67.1747 69.5321 68.4341 67.7703C69.975 65.4789 70.132 63.5139 70.1714 60.791C70.4014 59.0003 70.9039 58.0355 72.0031 56.6069C73.3265 55.8491 73.3265 55.8491 74.7829 55.1986C76.6694 54.157 77.3577 53.6887 78.0968 51.6328C78.3581 49.9839 78.5329 48.3822 78.5922 46.7145C78.9299 46.6209 79.2675 46.5274 79.6153 46.4311C82.3126 45.6535 82.3126 45.6535 84.5979 44.1039C85.3753 42.4563 85.8388 40.7848 86.2795 39.0203C86.8571 38.9523 87.4347 38.8843 88.0297 38.8142C91.2236 38.2902 92.8577 37.5348 95.065 35.1732C96.3725 34.5189 97.3145 34.5292 98.7713 34.4519C101.375 34.2188 102.883 33.5396 104.949 31.8757C105.492 31.513 106.036 31.1503 106.596 30.7766C106.698 31.162 106.8 31.5474 106.905 31.9444C108.299 34.7357 110.775 36.3323 113.357 37.9898C114.896 39.0647 115.284 39.5129 115.93 41.2186C116.17 45.6557 114.789 50.2138 113.788 54.5052C113.377 56.2729 113.006 58.042 112.668 59.825C111.397 66.4795 109.854 72.8713 105.875 78.4872C104.23 81.0529 103.998 83.4783 103.816 86.4561C103.789 86.8835 103.761 87.3109 103.733 87.7513C103.654 90.2737 103.806 91.9643 105.498 93.9785C107.352 94.6724 107.352 94.6724 109.341 95.0777C109.817 95.3157 110.293 95.5537 110.783 95.799C112.13 96.3191 112.13 96.3191 113.631 95.6959C115.019 94.5654 115.019 94.5654 115.244 92.5358C115.077 89.4138 112.941 87.4436 110.989 85.1852C110.328 83.8632 110.384 83.0144 110.405 81.5442C110.41 81.095 110.415 80.6459 110.42 80.1831C110.43 79.6667 110.43 79.6667 110.439 79.1398C110.541 79.8539 110.643 80.568 110.748 81.3038C111.222 83.5411 111.979 84.7595 113.494 86.4561C115.639 88.9562 115.769 90.9668 115.677 94.1975C115.781 95.7524 115.781 95.7524 117.247 96.5761C117.954 96.9226 117.954 96.9226 118.676 97.276C119.038 97.6387 119.401 98.0014 119.774 98.3751C120.318 98.3751 120.861 98.3751 121.421 98.3751C121.421 96.5615 121.421 94.7479 121.421 92.8793C121.636 94.2747 121.85 95.6702 122.065 97.0656C122.399 98.4643 122.399 98.4643 123.661 99.1008C124.009 99.224 124.357 99.3473 124.716 99.4743C124.951 93.595 124.464 90.4109 120.49 86.0181C119.582 84.9613 119.217 84.3838 119.253 82.974C119.324 82.3343 119.324 82.3343 119.397 81.6816C119.44 81.2579 119.483 80.8343 119.527 80.3978C119.774 79.1398 119.774 79.1398 120.327 78.0406C121.384 75.9084 121.317 73.7488 120.872 71.4456C120.011 69.9115 119.03 68.5745 117.957 67.1821C116.201 64.8516 115.652 62.4542 115.714 59.5459C116.182 56.7548 117.512 54.2192 118.676 51.6607C119.493 49.8282 119.916 48.4485 119.877 46.4397C119.869 46.0118 119.861 45.5839 119.853 45.143C119.8 43.9005 119.8 43.9005 119.431 42.4552C119.225 41.2186 119.225 41.2186 119.774 39.879C120.485 38.0548 120.34 37.0339 119.774 35.1732C118.473 33.7623 116.843 33.1998 115.107 32.4597C111.874 31.0375 110.647 29.6219 109.204 26.4143C107.839 23.514 106.158 22.2323 103.301 20.8841C103.12 21.4282 102.939 21.9723 102.752 22.5329C102.933 22.8956 103.115 23.2583 103.301 23.632C102.921 23.3132 102.921 23.3132 102.533 22.988C90.8539 13.6545 76.6672 17.8325 67.0613 28.0287ZM178.527 17.5866C177.883 18.1094 177.243 18.637 176.605 19.1667C176.07 19.6066 176.07 19.6066 175.524 20.0554C175.246 20.3289 174.969 20.6024 174.683 20.8841C174.683 21.2468 174.683 21.6096 174.683 21.9833C176.536 21.3316 177.784 20.7326 179.076 19.2354C178.895 18.6913 178.713 18.1472 178.527 17.5866ZM190.058 18.1362C189.333 19.043 188.608 19.9498 187.861 20.8841C188.042 21.2468 188.224 21.6096 188.41 21.9833C189.135 21.2578 189.86 20.5324 190.607 19.7849C190.426 19.2409 190.244 18.6968 190.058 18.1362ZM188.959 21.9833C188.959 22.346 188.959 22.7087 188.959 23.0824C191.512 23.2607 192.926 22.9596 194.999 21.4337C194.999 21.2523 194.999 21.071 194.999 20.8841C192.683 20.7763 191.062 20.9928 188.959 21.9833ZM167.819 22.0176C166.633 23.5509 166.625 25.0345 166.447 26.9295C168.463 25.2368 168.955 24.0452 169.192 21.4337C168.55 21.3807 168.55 21.3807 167.819 22.0176ZM184.018 21.9833C183.202 23.8876 183.202 23.8876 182.37 25.8303C183.486 25.4787 183.486 25.4787 184.567 24.7312C185.012 23.3269 185.012 23.3269 185.116 21.9833C184.753 21.9833 184.391 21.9833 184.018 21.9833ZM186.214 24.1816C186.033 24.5443 185.852 24.907 185.665 25.2808C186.752 25.2808 187.839 25.2808 188.959 25.2808C189.141 24.918 189.322 24.5553 189.509 24.1816C188.421 24.1816 187.334 24.1816 186.214 24.1816ZM164.25 24.7312C164.25 26.0007 164.25 27.2703 164.25 28.5783C164.794 28.8503 164.794 28.8503 165.349 29.1278C165.167 27.6769 164.986 26.226 164.799 24.7312C164.618 24.7312 164.437 24.7312 164.25 24.7312ZM181.821 28.0287C180.909 29.0843 180.308 30.0953 179.625 31.3262C181.231 32.0344 181.231 32.0344 182.714 31.4636C184.196 30.8749 184.196 30.8749 184.567 29.1278C185.66 28.7472 186.759 28.3818 187.861 28.0287C188.87 27.2049 188.87 27.2049 189.509 26.3799C186.503 26.1957 184.456 26.5358 181.821 28.0287ZM185.116 30.7766C184.391 31.502 183.666 32.2275 182.919 32.9749C183.101 33.3376 183.282 33.7004 183.469 34.0741C184.193 33.3486 184.918 32.6232 185.665 31.8757C185.484 31.513 185.303 31.1503 185.116 30.7766ZM185.665 34.0741C185.665 34.4368 185.665 34.7995 185.665 35.1732C186.456 35.0322 187.245 34.8815 188.033 34.7267C188.472 34.6438 188.912 34.5609 189.365 34.4755C190.735 34.0325 191.334 33.5132 192.254 32.4253C189.576 32.2339 187.987 32.7458 185.665 34.0741ZM104.29 33.7714C102.616 34.6994 101.451 34.8842 99.5606 35.0702C96.5626 35.4931 95.0277 36.3747 92.7721 38.3247C91.1314 39.4641 89.8599 39.2622 87.9268 39.0203C87.7873 39.3979 87.6479 39.7755 87.5042 40.1646C87.3152 40.6598 87.1263 41.155 86.9315 41.6652C86.7468 42.1561 86.5621 42.6471 86.3717 43.1529C85.7363 44.5036 85.2443 45.246 84.0831 46.1649C83.4376 46.3916 82.7921 46.6183 82.127 46.8519C80.0686 47.6319 80.0686 47.6319 79.5531 49.6685C79.4172 50.3259 79.2813 50.9833 79.1413 51.6607C77.8755 54.7163 75.2694 56.047 72.5522 57.7061C72.7334 58.6129 72.9146 59.5197 73.1013 60.454C74.1885 60.454 75.2757 60.454 76.3959 60.454C76.3959 60.8167 76.3959 61.1794 76.3959 61.5532C75.3087 61.8252 75.3087 61.8252 74.1995 62.1027C74.2122 62.6943 74.225 63.2859 74.2381 63.8953C74.3603 71.8881 74.1156 81.1075 69.5666 88.0361C65.915 91.691 60.1898 93.5651 55.5304 95.6272C56.8359 97.3482 58.0421 98.73 59.8202 99.9552C63.6809 102.76 66.7158 106.309 69.8068 109.916C70.3499 110.541 70.8933 111.166 71.4369 111.791C72.0262 112.471 72.6153 113.151 73.2043 113.832C73.4851 114.154 73.7658 114.476 74.0551 114.808C75.3561 116.318 76.5568 117.81 77.6249 119.495C77.9441 119.962 78.2633 120.428 78.5922 120.908C78.9546 120.908 79.317 120.908 79.6904 120.908C79.8192 121.211 79.9481 121.514 80.0808 121.827C80.969 123.432 82.0869 124.643 83.3281 125.992C83.7769 126.482 84.2256 126.972 84.688 127.477C85.204 128.034 85.204 128.034 85.7304 128.602C93.7373 125.263 100.424 112.184 103.692 104.364C104.786 101.64 105.656 99.0949 106.047 96.1768C105.156 95.6243 104.264 95.0754 103.37 94.5281C102.873 94.222 102.376 93.916 101.864 93.6007C100.645 92.7909 100.645 92.7909 99.4577 92.8793C99.4577 92.5166 99.4577 92.1539 99.4577 91.7802C98.3705 91.5081 98.3705 91.5081 97.2613 91.2306C96.5365 92.5001 95.8117 93.7697 95.065 95.0777C95.1839 94.5541 95.3028 94.0306 95.4253 93.4912C95.5782 92.8018 95.7311 92.1125 95.8886 91.4023C96.0415 90.7201 96.1944 90.0379 96.3519 89.335C96.6538 87.7001 96.788 86.2878 96.7122 84.6356C96.2939 84.5152 95.8756 84.3947 95.4446 84.2706C91.9414 83.1938 89.0891 81.9694 86.1379 79.7838C85.2216 79.0375 85.2216 79.0375 84.0831 79.1398C83.9019 78.5957 83.7207 78.0516 83.534 77.491C83.1716 77.491 82.8092 77.491 82.4359 77.491C82.3 77.2077 82.1641 76.9243 82.024 76.6323C81.4679 75.5468 80.8609 74.4874 80.2395 73.4379C79.2546 71.7349 78.597 70.0421 78.0431 68.1481C78.4055 68.1481 78.7679 68.1481 79.1413 68.1481C79.2546 68.5109 79.3678 68.8736 79.4845 69.2473C82.4143 75.6453 87.9441 80.2004 94.2392 83.0598C96.562 83.865 98.6896 84.0161 101.105 83.5364C107.523 79.5578 109.76 67.7751 111.4 60.9349C111.877 58.709 112.131 56.6909 112.087 54.4086C110.818 54.4086 109.55 54.4086 108.243 54.4086C108.062 57.6731 107.881 60.9376 107.694 64.3011C102.034 64.3011 102.034 64.3011 100.007 62.6523C99.8256 62.2896 99.6444 61.9269 99.4577 61.5532C100.825 62.1972 100.825 62.1972 102.192 62.8412C103.519 63.2727 104.66 63.2259 106.047 63.2019C106.058 62.8001 106.069 62.3983 106.08 61.9843C106.132 60.1573 106.192 58.3306 106.253 56.5039C106.27 55.8716 106.287 55.2393 106.304 54.5879C106.325 53.9768 106.347 53.3658 106.369 52.7362C106.394 51.8944 106.394 51.8944 106.421 51.0356C106.602 49.4029 106.969 48.1843 107.694 46.7145C108.666 46.1048 108.666 46.1048 109.787 45.7527C110.176 45.6273 110.565 45.5019 110.965 45.3727C112.246 45.0221 113.519 44.7214 114.832 44.5161C115.015 42.5546 114.993 41.4897 113.974 39.776C112.66 38.4941 111.369 37.7306 109.751 36.8842C108.159 35.8684 107.194 34.4605 106.047 32.9749C105.333 32.9245 105.333 32.9245 104.29 33.7714ZM180.723 33.5245C179.187 34.6608 179.061 35.2526 178.698 37.1998C178.642 37.8006 178.585 38.4013 178.527 39.0203C180.877 36.9451 180.877 36.9451 181.821 34.0741C181.459 33.8927 181.096 33.7113 180.723 33.5245ZM183.366 37.0968C182.776 37.3263 182.776 37.3263 182.175 37.5605C181.877 37.6795 181.579 37.7985 181.272 37.9211C181.272 38.2839 181.272 38.6466 181.272 39.0203C183.499 38.7631 185.372 38.5369 187.312 37.3716C187.312 37.0088 187.312 36.6461 187.312 36.2724C185.691 36.2724 184.846 36.5136 183.366 37.0968ZM173.036 40.1195C169.693 44.5675 167.411 48.9214 166.447 54.4086C170.064 49.9665 172.968 45.9331 173.585 40.1195C173.404 40.1195 173.223 40.1195 173.036 40.1195ZM175.781 42.8674C177.527 43.6361 178.143 43.3581 180.002 42.6956C181.851 41.9798 181.851 41.9798 182.37 40.6691C179.463 40.3919 178.08 41.1146 175.781 42.8674ZM108.243 47.8136C108.243 47.995 108.243 48.1763 108.243 48.3632C109.143 48.4822 109.143 48.4822 110.062 48.6036C112.087 48.9128 112.087 48.9128 113.734 49.4624C113.734 48.5556 113.734 47.6487 113.734 46.7145C111.441 45.9495 110.366 46.8116 108.243 47.8136ZM108.792 49.4624C108.611 50.3692 108.43 51.276 108.243 52.2103C109.149 52.0289 110.055 51.8475 110.989 51.6607C110.807 50.9352 110.626 50.2098 110.439 49.4624C109.896 49.4624 109.352 49.4624 108.792 49.4624ZM151.621 50.5615C151.502 52.3174 151.433 53.5068 152.273 55.0784C153.199 56.2009 153.199 56.2009 154.631 56.1518C155.121 56.0753 155.612 55.9988 156.117 55.92C156.612 55.8491 157.107 55.7783 157.616 55.7053C157.994 55.6401 158.371 55.5749 158.759 55.5078C158.02 53.0863 157.079 51.8899 154.916 50.5615C153.153 50.3773 153.153 50.3773 151.621 50.5615ZM149.974 58.8053C149.456 60.1666 149.456 60.1666 149.425 61.5532C150.002 62.62 150.002 62.62 151.072 63.2019C152.259 63.3029 152.259 63.3029 153.509 63.0645C153.927 63.005 154.345 62.9455 154.776 62.8842C155.986 62.6795 155.986 62.6795 157.029 62.3518C158.708 61.9979 160.344 62.0698 162.054 62.1027C161.531 62.1566 161.008 62.2104 160.469 62.2659C159.78 62.3481 159.092 62.4303 158.382 62.5149C157.7 62.5914 157.019 62.668 156.316 62.7468C154.186 63.244 153.147 63.8505 151.621 65.4002C151.391 66.8672 151.391 66.8672 151.621 68.1481C153.786 69.5346 156.128 69.6131 158.622 69.8656C159.058 69.9131 159.493 69.9605 159.941 70.0094C161.011 70.1255 162.082 70.2365 163.152 70.3465C162.451 70.3337 161.751 70.321 161.029 70.3078C160.112 70.2975 159.196 70.2875 158.279 70.2778C157.817 70.2686 157.355 70.2594 156.878 70.2499C156.436 70.2463 155.994 70.2428 155.538 70.2391C155.13 70.2334 154.721 70.2276 154.301 70.2217C153.134 70.2549 153.134 70.2549 152.17 71.4456C152.219 73.1128 152.219 73.1128 152.719 74.7431C153.263 75.1059 153.807 75.4686 154.367 75.8423C153.642 76.205 152.917 76.5677 152.17 76.9415C152.265 78.2712 152.265 78.2712 152.719 79.6894C156.529 82.769 162.979 84.4265 167.819 84.0517C171.572 83.0455 173.287 80.6318 175.187 77.3816C176.041 75.1702 175.777 73.4264 175.307 71.1408C175.21 69.3957 175.844 68.9515 176.879 67.5986C176.961 66.2611 176.961 66.2611 176.708 64.885C176.498 63.4215 176.331 62.0937 176.373 60.6129C176.359 60.1977 176.345 59.7826 176.33 59.3548C172.63 56.1292 166.697 56.4066 162.088 56.4008C161.528 56.3874 160.968 56.3739 160.391 56.36C156.768 56.3462 153.002 56.6064 149.974 58.8053ZM177.429 73.0944C177.202 73.7405 176.976 74.3866 176.742 75.0523C175.894 77.3142 174.85 79.2805 173.585 81.3381C173.248 81.9077 173.248 81.9077 172.905 82.4888C171.583 83.9202 170.425 84.0924 168.54 84.4982C167.943 84.6314 167.347 84.7646 166.732 84.9018C166.275 84.9953 165.819 85.0888 165.349 85.1852C166.007 86.8721 166.72 88.5036 167.511 90.1314C170.606 97.0802 170.904 104.652 170.955 112.138C170.971 113.41 170.986 114.682 171.002 115.954C171.025 117.93 171.045 119.907 171.06 121.883C171.162 135.268 171.162 135.268 175.061 147.975C176.879 152.055 176.879 152.055 176.879 153.883C174.383 151.027 172.68 148.355 172.227 144.57C171.757 140.084 171.757 140.084 169.269 136.504C166.692 134.864 163.902 133.677 161.103 132.47C155.771 130.028 151.428 125.467 147.229 121.458C146.867 121.118 146.505 120.779 146.133 120.429C144.289 118.653 142.683 116.761 141.086 114.76C136.264 108.8 131.079 103.09 123.618 100.573C122.13 100.481 122.13 100.481 120.872 100.573C122.152 104.282 123.489 107.961 124.926 111.612C132.082 129.806 132.082 129.806 132.272 139.023C132.629 143.578 136.84 146.639 140.09 149.486C146.007 154.271 152.345 158.589 158.759 162.676C159.09 162.888 159.421 163.099 159.762 163.317C170.804 170.776 170.804 170.776 183.469 172.019C188.866 169.929 192.163 162.717 194.382 157.696C196.554 151.917 197.494 146.306 197.436 140.143C197.431 139.497 197.425 138.85 197.42 138.184C196.978 116.106 186.444 93.2507 177.978 73.0944C177.796 73.0944 177.615 73.0944 177.429 73.0944ZM65.4141 82.4373C65.0856 82.936 64.7572 83.4348 64.4188 83.9486C63.2177 85.7348 63.2177 85.7348 61.7763 86.7996C60.0755 88.2779 59.8319 89.6139 59.3741 91.7802C62.1252 91.0758 63.6976 90.2237 65.4141 87.9331C65.9496 86.1194 66.2687 84.311 66.5122 82.4373C66.1498 82.4373 65.7874 82.4373 65.4141 82.4373ZM98.3595 85.1852C98.1207 87.6234 98.063 88.6633 99.6293 90.6123C101.035 91.8606 101.035 91.8606 102.752 92.3298C102.746 92.0109 102.739 91.6921 102.733 91.3637C102.704 88.8675 102.798 86.5442 103.301 84.086C101.445 84.086 100.098 84.5667 98.3595 85.1852ZM43.9995 97.276C44.5064 98.8401 45.0276 100.392 45.621 101.926C50.5451 114.762 48.6985 128.089 43.9995 140.693C43.7815 141.164 43.5635 141.635 43.3389 142.121C42.8062 143.728 42.9639 144.655 43.3475 146.292C43.5057 147.001 43.5057 147.001 43.6671 147.724C43.96 148.947 43.96 148.947 44.5486 150.036C44.911 150.036 45.2734 150.036 45.6468 150.036C51.302 138.679 51.9235 127.354 51.6868 114.863C52.2346 117.605 52.3242 120.229 52.3281 123.012C52.3299 123.468 52.3318 123.924 52.3336 124.395C52.3364 125.353 52.3377 126.312 52.3376 127.271C52.3388 128.742 52.3488 130.214 52.3592 131.685C52.3608 132.618 52.3619 133.551 52.3624 134.484C52.3664 134.925 52.3703 135.366 52.3744 135.82C52.3615 138.918 52.3615 138.918 51.1377 140.143C50.7762 141.245 50.4494 142.357 50.1425 143.475C49.3191 146.306 48.3368 148.604 46.6656 151.028C45.7797 153.303 46.5726 155.599 47.3686 157.826C47.6243 158.408 47.88 158.991 48.1434 159.591C48.4266 160.243 48.7097 160.896 49.0014 161.567C49.3015 162.246 49.6018 162.925 49.9022 163.604C50.769 165.589 51.6348 167.574 52.5 169.559C53.045 170.808 53.5945 172.054 54.1488 173.298C55.4117 176.198 56.3982 178.631 56.4227 181.843C56.5378 184.442 56.6952 186.339 58.2759 188.507C62.3647 191.25 69.6767 188.797 74.1995 187.957C73.3392 186.235 71.8845 186.12 70.1156 185.484C66.63 184.228 66.63 184.228 65.4141 183.011C66.2082 183.299 66.2082 183.299 67.0184 183.593C67.7191 183.845 68.4197 184.098 69.1204 184.35C69.4687 184.477 69.8169 184.603 70.1757 184.734C73.8189 186.044 76.7342 186.414 80.5827 186.411C81.0744 186.412 81.5662 186.412 82.0728 186.412C85.4374 186.385 88.507 186.08 91.7704 185.209C89.9546 183.997 88.7543 183.779 86.6227 183.389C77.8318 181.576 67.437 177.497 62.1195 169.821C62.3347 170.041 62.5499 170.261 62.7716 170.488C72.9867 180.206 87.3804 183.742 101.105 183.56C105.768 183.336 110.435 183.015 114.832 181.362C113.198 180.022 111.654 179.259 109.685 178.511C103.449 175.969 97.9506 172.593 92.8686 168.172C92.4184 167.794 91.9683 167.417 91.5044 167.028C86.5725 162.774 82.3983 157.885 79.1413 152.234C81.087 154.148 82.954 156.121 84.805 158.127C94.423 168.525 106.621 179.419 121.436 180.304C123.452 180.253 124.748 179.827 126.363 178.614C127.251 176.836 127.221 175.041 126.912 173.118C125.103 170.558 122.381 169.225 119.753 167.588C113.033 163.187 107.34 157.269 102.203 151.135C101.781 150.632 101.358 150.129 100.923 149.611C99.5134 147.925 98.1115 146.234 96.7122 144.54C96.3038 144.046 95.8954 143.552 95.4746 143.044C92.982 140.013 90.5465 136.943 88.1309 133.851C85.2691 130.196 82.3382 126.599 79.403 123.004C78.6828 122.118 77.9679 121.229 77.2538 120.339C74.6458 117.099 71.915 114.011 69.0861 110.966C67.746 109.514 66.4412 108.037 65.1395 106.55C58.3231 98.9613 58.3231 98.9613 49.0786 95.3524C47.1123 95.6552 45.7098 96.2739 43.9995 97.276ZM107.694 96.1768C107.494 96.7747 107.295 97.3727 107.089 97.9887C103.424 108.8 97.919 117.586 90.5843 126.294C90.2509 126.693 89.9175 127.092 89.5741 127.503C89.2463 127.873 88.9186 128.244 88.581 128.626C87.8289 129.642 87.8289 129.642 87.9589 130.758C88.6601 132.307 89.6234 133.477 90.7066 134.785C91.3107 135.52 91.3107 135.52 91.927 136.271C92.2377 136.642 92.5484 137.013 92.8686 137.395C95.0823 135.337 96.6814 133.202 98.2565 130.629C98.4927 130.246 98.7289 129.863 98.9723 129.469C103.231 122.455 106.802 114.977 109.341 107.168C106.985 118.184 102.558 127.762 95.4081 136.52C94.3856 137.82 94.3856 137.82 94.6487 139.022C95.0959 140.227 95.6 140.955 96.4398 141.921C96.7106 142.236 96.9813 142.551 97.2602 142.876C97.5437 143.199 97.8272 143.521 98.1193 143.853C98.4049 144.184 98.6905 144.515 98.9847 144.856C99.6881 145.669 100.396 146.479 101.105 147.288C103.184 146.873 104.072 146.12 105.498 144.54C104.592 146.172 103.686 147.805 102.752 149.486C103.811 150.682 104.875 151.872 105.944 153.059C106.244 153.399 106.545 153.74 106.854 154.091C107.146 154.413 107.438 154.736 107.739 155.068C108.007 155.367 108.274 155.667 108.549 155.975C109.382 156.806 109.382 156.806 110.989 156.631C114.211 154.595 116.461 151.419 118.676 148.387C116.982 152.367 114.515 155.172 111.538 158.28C112.798 160.308 113.859 161.982 115.93 163.226C116.293 163.226 116.655 163.226 117.029 163.226C117.21 163.77 117.391 164.314 117.578 164.875C118.665 165.797 118.665 165.797 119.98 166.626C120.415 166.918 120.849 167.209 121.297 167.509C122.529 168.303 122.529 168.303 124.167 168.172C124.348 165.452 124.529 162.731 124.716 159.928C123.81 160.291 122.904 160.654 121.97 161.027C121.055 161.394 120.14 161.76 119.225 162.127C119.616 161.779 120.008 161.432 120.411 161.075C126.057 155.796 129.738 149.763 130.323 141.88C130.775 127.789 125.26 112.445 118.989 100.022C118.785 99.614 118.581 99.2062 118.372 98.7861C117.302 97.4918 116.467 97.4524 114.832 97.276C114.203 97.1995 114.203 97.1995 113.56 97.1214C112.737 97.0411 111.913 96.961 111.089 96.881C109.923 96.7306 108.827 96.4855 107.694 96.1768ZM32.9491 103.656C26.9733 109.264 24.4641 117.731 22.0016 125.305C21.7928 125.937 21.5841 126.57 21.3691 127.221C20.426 130.08 19.4891 132.94 18.5545 135.801C17.774 138.189 16.9894 140.575 16.2018 142.96C16 143.572 16 143.572 15.7941 144.196C13.1419 152.209 10.2609 160.134 7.30024 168.038C5.70922 172.304 4.18192 176.576 2.86918 180.937C2.75569 181.306 2.6422 181.676 2.52527 182.056C-1.20824 194.882 6.47638 207.805 11.6418 219.156C14.6919 225.874 17.4173 232.559 19.7525 239.559C23.7698 251.919 23.7698 251.919 32.4686 261.051C36.2035 262.633 36.2035 262.633 40.1559 263.25C40.2889 263.9 40.422 264.55 40.5591 265.22C41.534 269.863 42.5117 274.322 44.5486 278.638C44.911 278.638 45.2734 278.638 45.6468 278.638C46.9234 275.61 46.8733 272.861 46.8136 269.639C46.8086 269.129 46.8037 268.62 46.7986 268.095C46.7857 266.846 46.7677 265.598 46.745 264.349C47.1074 264.349 47.4698 264.349 47.8431 264.349C48.0302 269.746 47.4525 274.951 46.745 280.287C47.7537 280.711 47.7537 280.711 48.9413 280.836C51.1836 278.999 52.023 276.301 52.4168 273.507C52.5172 272.194 52.5759 270.887 52.6134 269.57C52.6321 269.118 52.6509 268.666 52.6702 268.2C52.715 267.1 52.7509 265.999 52.785 264.898C52.7999 266.124 52.8105 267.349 52.8193 268.574C52.8257 269.256 52.832 269.938 52.8386 270.641C52.7928 272.306 52.5898 273.724 52.2359 275.34C52.2149 276.623 52.2108 277.905 52.2359 279.188C52.9607 279.188 53.6855 279.188 54.4322 279.188C56.85 276.768 57.777 274.157 57.834 270.776C57.8268 269.939 57.8138 269.102 57.7954 268.265C57.7905 267.834 57.7855 267.403 57.7804 266.959C57.7676 265.906 57.7479 264.853 57.7268 263.799C58.5084 266.266 58.958 268.297 58.8936 270.909C58.8837 271.436 58.8738 271.962 58.8636 272.505C58.8508 272.896 58.8381 273.288 58.825 273.692C59.8906 273.54 59.8906 273.54 61.0213 273.142C62.677 270.656 62.4136 268.361 62.1195 265.448C61.1319 260.924 58.7244 258.17 54.9813 255.556C49.5852 252.332 43.5453 252.065 37.4104 252.258C37.2292 251.895 37.048 251.533 36.8613 251.159C37.5861 250.978 38.3109 250.796 39.0577 250.609C38.1973 247.89 37.2588 245.284 36.1063 242.675C32.3789 233.776 30.8854 224.199 29.2282 214.75C28.0569 208.116 26.6575 201.738 24.42 195.372C21.7756 187.699 23.1319 182.584 26.583 175.437C27.7446 173.078 28.9376 170.736 30.1403 168.398C31.6744 165.413 33.1726 162.409 34.6591 159.4C35.0382 158.635 35.4197 157.871 35.8034 157.108C43.5035 141.755 50.9827 123.282 46.1487 105.895C45.4131 103.734 44.7057 101.945 43.4504 100.024C39.7074 98.6029 35.8793 101.435 32.9491 103.656ZM19.8395 124.205C15.3941 130.014 11.9769 135.827 12.7013 143.441C13.2296 144.645 13.2296 144.645 13.7995 145.639C15.5774 141.42 17.0157 137.132 18.3638 132.758C18.568 132.115 18.7722 131.473 18.9826 130.81C19.1727 130.196 19.3627 129.581 19.5585 128.948C19.8179 128.115 19.8179 128.115 20.0826 127.266C20.526 125.8 20.526 125.8 19.8395 124.205ZM41.2541 148.387C40.1218 150.563 39.0208 152.751 37.9533 154.96C37.5963 155.697 37.2352 156.433 36.8696 157.166C34.7029 161.339 34.7029 161.339 34.3432 165.892C34.9047 167.278 35.57 168.525 36.3122 169.821C37.5015 172.76 38.3668 175.411 37.9595 178.614C37.4333 179.817 36.851 180.943 36.19 182.077C36.0491 182.385 35.9083 182.693 35.7631 183.011C35.9444 183.373 36.1255 183.736 36.3122 184.11C39.8866 182.497 41.4403 180.603 42.9013 176.965C43.9324 173.742 43.2009 171.117 42.1828 167.96C41.797 166.5 41.7355 165.277 41.8032 163.775C43.6766 167.813 44.2771 171.459 44.32 175.857C44.393 179.247 45.3467 181.336 47.3627 184.007C48.6698 186.231 49.0794 188.131 48.9413 190.705C48.152 192.594 48.152 192.594 47.2941 194.002C47.2941 194.365 47.2941 194.728 47.2941 195.102C49.4434 194.951 50.4253 194.689 52.0986 193.281C54.1923 190.778 54.6032 189.149 54.6381 185.862C54.6615 184.887 54.6615 184.887 54.6853 183.893C54.2868 177.176 51.4437 170.876 48.7011 164.84C48.0803 163.461 47.4637 162.081 46.8501 160.699C46.7009 160.365 46.5517 160.031 46.398 159.686C45.0604 156.645 43.9762 153.538 42.9334 150.385C42.5084 148.863 42.5084 148.863 41.2541 148.387ZM131.305 148.937C127.499 154.526 126.09 159.228 125.814 165.974C125.774 166.586 125.735 167.198 125.694 167.829C125.734 168.305 125.773 168.781 125.814 169.271C126.358 169.634 126.901 169.997 127.461 170.37C127.643 170.008 127.824 169.645 128.01 169.271C128.916 170.178 129.822 171.085 130.756 172.019C131.464 170.894 131.464 170.894 130.966 169.443C130.696 167.1 131.329 165.89 132.334 163.775C134.176 159.867 135.085 157.364 133.604 153.196C133.408 152.626 133.212 152.057 133.01 151.47C132.486 149.981 132.486 149.981 131.305 148.937ZM32.4686 167.622C25.484 178.329 25.484 178.329 24.2322 190.705C24.6239 191.981 25.0518 193.246 25.5084 194.5C26.9074 198.504 27.8342 202.518 28.6391 206.677C28.8726 207.883 29.113 209.088 29.355 210.292C29.6866 211.943 30.0163 213.594 30.3444 215.246C33.6996 233.519 33.6996 233.519 40.705 250.609C42.0258 251.27 42.8739 251.214 44.3427 251.193C45.0158 251.186 45.0158 251.186 45.7026 251.178C46.0465 251.172 46.3905 251.165 46.745 251.159C46.753 250.812 46.761 250.465 46.7692 250.107C47.2635 230.697 50.0854 211.344 58.4131 193.605C58.8894 192.158 58.9366 191.528 58.2759 190.155C57.1866 189.449 57.1866 189.449 56.0795 189.056C55.9195 189.388 55.7596 189.719 55.5948 190.061C54.1569 192.867 53.0312 194.876 50.0395 196.201C48.364 196.419 46.7667 196.488 45.0977 196.201C44.7353 195.838 44.3729 195.475 43.9995 195.102C44.3393 194.966 44.679 194.829 45.0291 194.689C46.4811 193.834 46.7871 193.411 47.2941 191.804C47.7832 188.193 46.9581 186.46 44.8274 183.55C44.5542 183.19 44.281 182.831 43.9995 182.461C43.6371 181.917 43.2747 181.373 42.9013 180.812C42.597 181.084 42.2926 181.355 41.979 181.635C41.5812 181.987 41.1834 182.339 40.7736 182.702C40.3786 183.052 39.9837 183.403 39.5768 183.764C37.8431 185.217 36.8184 185.272 34.5963 185.243C34.0966 185.238 33.5969 185.234 33.082 185.228C32.6984 185.222 32.3148 185.216 31.9195 185.209C31.9195 184.846 31.9195 184.484 31.9195 184.11C32.3385 184.008 32.7576 183.906 33.1893 183.801C34.8657 182.903 35.3961 182.106 36.0291 180.323C37.1483 175.74 36.1258 172.745 33.7384 168.752C33.5005 168.379 33.2627 168.006 33.0177 167.622C32.8365 167.622 32.6553 167.622 32.4686 167.622ZM126.363 180.812C125.491 181.755 125.491 181.755 124.647 182.942C124.351 183.337 124.055 183.733 123.751 184.14C122.97 185.152 122.97 185.152 123.069 186.308C121.612 186.899 120.167 187.459 118.676 187.957C118.987 187.705 119.297 187.453 119.617 187.193C120.02 186.855 120.423 186.518 120.838 186.171C121.44 185.674 121.44 185.674 122.054 185.166C123.151 184.024 123.309 183.421 123.618 181.912C113.602 183.472 103.586 185.038 93.5893 186.72C92.9256 186.829 92.2619 186.938 91.578 187.05C90.9712 187.154 90.3644 187.258 89.7392 187.364C88.9507 187.497 88.9507 187.497 88.1462 187.632C86.6964 187.91 86.6964 187.91 85.1813 189.056C87.7618 191.441 90.3694 193.282 93.4863 194.895C93.8942 195.108 94.3021 195.32 94.7223 195.538C101.973 199.212 108.968 200.206 117.029 200.048C107.416 201.849 98.7676 200.037 90.6722 194.552C88.6392 193.145 86.756 191.772 85.0784 189.949C84.1168 188.907 84.1168 188.907 82.5731 188.919C81.9616 188.987 81.9616 188.987 81.3377 189.056C80.6284 190.607 80.6284 190.607 81.1761 191.729C81.8965 193.007 82.6183 194.283 83.3625 195.548C83.7704 196.247 83.7704 196.247 84.1866 196.96C86.8256 201.354 89.9273 205.109 93.4177 208.841C93.8933 209.393 93.8933 209.393 94.3786 209.955C97.6308 213.558 102.032 216.068 106.047 218.734C106.687 219.161 107.327 219.588 107.966 220.015C108.42 220.318 108.874 220.62 109.341 220.932C103.675 218.253 98.4696 215.65 94.0354 211.108C92.9249 209.822 92.9249 209.822 91.2213 209.391C90.8339 208.669 90.4723 207.933 90.1231 207.192C89.3803 206.21 88.6236 205.238 87.8581 204.273C84.4613 199.802 81.6765 194.87 79.6904 189.606C78.6542 189.572 78.6542 189.572 77.597 189.537C77.2084 189.524 76.8198 189.512 76.4195 189.498C75.1255 189.533 75.1255 189.533 73.6504 190.705C74.9611 209.286 81.7409 225.331 92.8686 240.167C93.3561 240.819 93.3561 240.819 93.8534 241.483C95.9807 244.325 95.9807 244.325 98.1174 247.159C104.683 255.856 104.683 255.856 105.498 258.303C101.326 253.503 97.4082 248.564 93.6515 243.432C92.9217 242.438 92.184 241.45 91.4444 240.464C83.0795 229.182 77.3085 217.042 74.1995 203.345C74.0381 202.685 74.0381 202.685 73.8735 202.012C73.5176 199.755 73.4452 197.485 73.3416 195.205C73.3178 194.719 73.2941 194.233 73.2697 193.733C73.2117 192.54 73.1563 191.348 73.1013 190.155C71.4705 190.427 71.4705 190.427 69.8068 190.705C68.8006 194.205 68.4386 197.513 68.2968 201.147C68.2739 201.718 68.251 202.289 68.2275 202.878C67.9664 211.681 68.9209 220.497 70.3559 229.176C69.9986 227.619 69.6445 226.062 69.292 224.504C69.1918 224.069 69.0917 223.634 68.9885 223.186C67.7477 217.677 67.5102 212.457 67.5075 206.815C67.5007 206.108 67.494 205.401 67.4871 204.673C67.4802 200.098 67.8688 195.752 68.7086 191.254C67.3725 191.171 67.3725 191.171 65.9631 191.254C63.9301 193.583 63.2913 196.997 62.4284 199.91C62.2609 200.468 62.0935 201.025 61.921 201.599C60.5132 206.353 59.3222 211.14 58.2759 215.986C59.3449 207.689 61.0447 199.543 64.3159 191.804C63.2149 191.109 63.2149 191.109 61.89 191.546C59.9924 192.627 59.4391 193.978 58.6534 195.926C58.495 196.305 58.3365 196.684 58.1733 197.074C52.2752 211.702 48.9039 227.017 48.8041 242.778C48.7989 243.341 48.7938 243.904 48.7885 244.484C48.7788 248.496 48.7788 248.496 50.0395 252.258C51.0929 253.037 51.0929 253.037 52.3731 253.426C56.3581 254.986 59.711 257.127 61.564 261.122C61.8977 261.89 62.2154 262.666 62.512 263.449C63.2138 264.537 63.2138 264.537 64.9357 264.75C65.456 264.799 65.9762 264.848 66.5122 264.898C66.7632 270.974 66.2483 276.848 65.4992 282.878C64.4299 291.634 64.2224 300.379 64.1421 309.189C64.1308 310.265 64.1192 311.34 64.1076 312.416C64.0836 314.662 64.0611 316.908 64.0398 319.154C64.0131 321.972 63.9836 324.791 63.9531 327.609C63.8112 340.78 63.7283 353.949 63.7668 367.121C66.3617 365.865 68.2482 364.127 70.3559 362.174C70.7551 361.805 71.1543 361.435 71.5656 361.054C74.8852 357.859 77.5661 354.372 80.2395 350.633C77.1031 358.444 72.4689 364.202 65.4141 368.769C64.8705 369.132 64.3269 369.495 63.7668 369.869C63.5276 371.33 63.5276 371.33 63.5866 373.065C63.589 373.736 63.5915 374.406 63.594 375.097C63.6055 375.839 63.6174 376.58 63.6295 377.322C63.6365 378.102 63.6429 378.881 63.6489 379.661C63.7045 385.501 63.8793 391.338 64.0803 397.175C64.3603 405.485 64.4871 413.799 64.6247 422.113C64.6308 422.48 64.6369 422.847 64.6432 423.225C64.719 427.789 64.793 432.353 64.865 436.918C65.2274 437.099 65.5898 437.28 65.9631 437.467C76.7088 414.193 83.9219 389.28 91.7704 364.922C87.8529 381.75 82.8855 398.154 76.7734 414.316C76.6172 414.729 76.461 415.143 76.3001 415.569C73.3988 423.212 70.1885 430.704 66.6409 438.07C65.1696 441.171 64.7721 443.678 64.6912 447.093C64.6798 447.507 64.6684 447.92 64.6566 448.346C64.6201 449.712 64.5878 451.078 64.5561 452.443C64.5445 452.91 64.5328 453.376 64.5209 453.857C64.2534 464.698 64.2596 475.537 64.3159 486.38C68.9169 485.422 72.3677 479.971 75.2977 476.487C75.6558 476.068 76.014 475.649 76.383 475.217C79.4067 471.607 82.1665 467.836 84.8974 464.002C86.4038 461.887 87.9245 459.808 89.5741 457.802C83.5158 468.822 76.3566 480.018 65.7336 487.131C64.711 487.999 64.711 487.999 64.7341 489.51C64.7773 489.928 64.8205 490.346 64.865 490.777C65.359 490.818 65.8531 490.859 66.3621 490.901C70.9748 491.373 75.2385 492.256 79.6904 493.559C88.461 496.044 95.0001 495.839 103.805 493.647C111.863 491.654 118.847 492.957 126.669 495.302C135.297 497.852 142.732 496.923 150.935 493.25C154.121 491.851 157.333 491.125 160.733 490.464C163.374 489.938 165.695 489.277 168.094 488.029C168.275 487.485 168.456 486.94 168.643 486.38C167.987 485.372 167.987 485.372 166.996 484.388C166.46 483.799 166.46 483.799 165.913 483.198C165.545 482.797 165.178 482.396 164.799 481.983C147.43 462.459 146.822 428.284 145.032 403.393C144.993 402.86 144.953 402.327 144.912 401.778C142.574 368.675 146.157 335.214 149.389 302.31C153.375 261.7 154.001 214.792 127.461 180.812C127.099 180.812 126.737 180.812 126.363 180.812ZM24.7813 259.952C24.7813 260.315 24.7813 260.678 24.7813 261.051C26.5933 261.233 28.4053 261.414 30.2722 261.601C28.7738 259.733 28.7738 259.733 26.6002 259.849C26 259.883 25.3997 259.917 24.7813 259.952ZM17.0941 261.601C16.9129 263.233 16.7317 264.865 16.545 266.547C17.1225 266.568 17.1225 266.568 17.7118 266.59C21.549 266.82 25.0619 267.331 27.8528 270.192C28.5767 271.072 28.5767 271.072 29.7231 270.944C29.8767 271.257 30.0303 271.57 30.1886 271.893C30.5979 272.701 31.0245 273.501 31.4712 274.289C35.6814 281.981 35.8513 290.889 35.8329 299.469C35.8337 300.094 35.8346 300.718 35.8355 301.362C35.8376 303.437 35.8359 305.512 35.8342 307.587C35.8346 309.083 35.8359 310.578 35.8371 312.074C35.8396 315.709 35.839 319.344 35.8374 322.979C35.8362 325.945 35.836 328.91 35.8366 331.876C35.8367 332.3 35.8368 332.725 35.8369 333.161C35.8371 334.024 35.8372 334.886 35.8374 335.748C35.839 343.827 35.8372 351.907 35.8342 359.987C35.8318 366.868 35.8322 373.749 35.8347 380.629C35.8377 388.657 35.8388 396.685 35.8371 404.712C35.837 405.576 35.8368 406.44 35.8366 407.303C35.8365 407.94 35.8365 407.94 35.8364 408.59C35.8359 411.532 35.8367 414.474 35.838 417.416C35.85 447.604 35.85 447.604 35.5527 461.738C35.5402 462.423 35.5402 462.423 35.5275 463.122C35.1744 481.618 35.1744 481.618 31.0058 486.309C27.2027 489.373 22.3234 489.365 17.6432 489.677C17.6432 490.403 17.6432 491.128 17.6432 491.876C24.409 493.833 31.4564 494.88 38.5086 494.624C39.1138 492.806 39.1253 491.471 39.1237 489.557C39.1245 488.836 39.1252 488.116 39.126 487.374C39.1241 486.569 39.1221 485.765 39.12 484.96C39.1199 484.109 39.12 483.258 39.1203 482.408C39.1204 480.063 39.1172 477.718 39.1134 475.373C39.1099 472.847 39.1096 470.32 39.1089 467.793C39.1073 463.411 39.1038 459.029 39.099 454.647C39.0921 448.299 39.0887 441.952 39.0864 435.605C39.0825 425.292 39.0766 414.98 39.069 404.667C39.0683 403.741 39.0683 403.741 39.0676 402.796C39.0639 397.789 39.0601 392.783 39.0563 387.777C39.0529 383.413 39.0497 379.05 39.0464 374.687C39.046 374.073 39.0455 373.459 39.0451 372.826C39.0375 362.563 39.0322 352.301 39.0284 342.038C39.0259 335.712 39.0215 329.387 39.0146 323.062C39.0099 318.719 39.0072 314.376 39.0061 310.033C39.0053 307.532 39.0037 305.031 38.9996 302.53C38.9706 284.216 38.9706 284.216 39.4986 276.673C39.7393 272.485 39.6119 268.842 36.8613 265.448C35.0234 264.578 35.0234 264.578 32.8804 264.231C32.4987 264.151 32.117 264.071 31.7238 263.989C30.5103 263.738 29.2938 263.511 28.0759 263.284C27.2577 263.118 26.4397 262.95 25.6221 262.781C21.3925 261.901 21.3925 261.901 17.0941 261.601ZM63.2177 270.944C62.9232 271.545 62.6288 272.145 62.3254 272.764C61.3911 274.44 61.0861 274.759 59.2711 275.65C57.5737 276.293 57.5737 276.293 57.1777 278.02C57.0691 279.714 57.0691 279.714 57.7268 281.077C58.654 283.455 57.9615 285.627 57.1777 287.981C54.5607 289.225 51.7938 289.433 48.9413 289.08C47.5357 288.579 46.9054 288.217 46.0629 286.976C45.5935 285.63 45.5364 284.594 45.5781 283.172C45.5881 282.733 45.598 282.294 45.6082 281.841C45.6209 281.509 45.6337 281.178 45.6468 280.836C45.3042 280.69 44.9616 280.544 44.6087 280.394C42.9464 279.451 42.5472 278.153 41.8032 276.44C41.6219 276.44 41.4408 276.44 41.2541 276.44C40.8985 312.636 40.6495 348.831 40.6513 385.029C40.6514 385.435 40.6514 385.841 40.6514 386.259C40.6519 396.508 40.6576 406.758 40.6654 417.008C40.6699 422.937 40.6728 428.866 40.6748 434.795C40.6749 435.222 40.6751 435.648 40.6752 436.088C40.676 438.232 40.6767 440.375 40.6773 442.519C40.6829 459.887 40.6925 477.255 40.705 494.624C42.2381 495.391 43.5063 495.245 45.22 495.246C46.2588 495.247 46.2588 495.247 47.3187 495.248C47.6814 495.247 48.0441 495.246 48.4178 495.245C49.5071 495.242 50.5964 495.245 51.6857 495.248C52.3833 495.248 53.0808 495.247 53.7995 495.246C54.7509 495.245 54.7509 495.245 55.7214 495.244C57.2805 495.189 58.7766 495.072 60.323 494.894C60.7636 494.844 61.2042 494.793 61.6581 494.741C61.9915 494.703 62.325 494.664 62.6686 494.624C62.6816 482.931 62.6912 471.239 62.6971 459.547C62.6999 454.115 62.7037 448.683 62.71 443.251C62.7792 412.119 62.7792 412.119 62.2142 380.994C62.0306 374.676 61.988 368.357 61.9822 362.037C61.981 361.356 61.9797 360.676 61.9783 359.974C61.9671 343.484 62.5361 327.008 63.1218 310.53C63.2183 307.814 63.313 305.098 63.4064 302.382C63.4244 301.86 63.4424 301.338 63.4609 300.8C63.7977 290.846 63.8623 280.903 63.7668 270.944C63.5856 270.944 63.4044 270.944 63.2177 270.944ZM52.785 280.836C52.332 280.916 51.879 280.995 51.4122 281.077C50.0713 281.379 49.0395 281.82 47.8431 282.485C47.9881 284.371 47.9881 284.371 48.3922 286.332C50.3241 287.621 51.0596 287.75 53.3341 287.431C54.9925 286.367 54.9925 286.367 56.0795 284.683C56.3092 282.644 56.3092 282.644 56.0795 280.836C54.675 280.133 54.2683 280.412 52.785 280.836Z" fill="#31572C"/>
<path d="M102.203 43.9665C102.203 44.5106 102.203 45.0547 102.203 45.6152C98.5756 45.1265 98.5756 45.1265 97.2613 44.7565C94.9901 44.2592 92.8662 44.3337 90.6722 45.0656C89.3912 45.0874 88.1096 45.0898 86.8286 45.0656C91.7999 41.0114 96.5083 42.2062 102.203 43.9665Z" fill="#31572C"/>
<path d="M96.7122 46.165C98.1536 47.2642 98.1536 47.2642 98.9086 48.3633C98.287 49.9394 97.7341 50.8932 96.1674 51.6158C93.8024 52.2733 92.7049 52.3928 90.432 51.3174C89.1781 50.1542 88.4944 49.4044 87.9268 47.8138C90.7702 46.0163 93.4273 45.6302 96.7122 46.165ZM91.7704 48.3633C91.7704 48.9074 91.7704 49.4515 91.7704 50.0121C93.0388 50.0121 94.3072 50.0121 95.6141 50.0121C95.6141 49.2866 95.6141 48.5612 95.6141 47.8138C93.6215 47.7305 93.6215 47.7305 91.7704 48.3633Z" fill="#31572C"/>
<path d="M74.1995 47.2642C73.7953 47.537 73.3912 47.8097 72.9748 48.0908C68.4333 51.2552 65.5545 53.8325 64.3159 59.355C63.9535 59.355 63.5911 59.355 63.2177 59.355C63.0434 56.4482 63.24 54.6501 64.865 52.2105C70.7681 46.1194 70.7681 46.1194 74.1995 47.2642Z" fill="#31572C"/>
<path d="M56.6286 66.4995C56.6286 68.1483 56.6286 68.1483 55.8178 69.183C54.8158 70.5769 54.8018 71.3309 54.7754 73.0258C54.582 75.9335 53.7473 77.1304 51.6868 79.1399C51.3244 78.9585 50.962 78.7772 50.5886 78.5903C50.9397 78.1482 51.2907 77.7062 51.6525 77.2507C52.6797 75.7422 52.9133 74.6677 52.9909 72.8541C53.1725 69.9544 54.5844 68.4454 56.6286 66.4995Z" fill="#31572C"/>
<path d="M61.5704 67.0491C61.7516 67.0491 61.9328 67.0491 62.1195 67.0491C63.004 71.365 63.2827 75.2166 61.0213 79.1399C59.1045 81.1052 57.4726 81.9944 54.947 83.0213C52.4076 84.2084 51.688 85.3669 50.6916 87.9675C50.5181 88.5293 50.3447 89.0911 50.1661 89.6699C49.3443 91.5683 48.4808 92.3308 46.745 93.429C44.6516 93.5664 44.6516 93.5664 42.9013 93.429C43.36 93.1059 43.36 93.1059 43.8279 92.7764C46.3229 90.8191 47.8485 89.2491 48.9413 86.2501C50.2893 82.6594 52.1876 81.6163 55.5647 80.0329C58.0008 78.8501 59.2718 77.8003 60.4722 75.2928C61.1806 73.1068 61.0472 70.9129 60.987 68.6377C61.0213 67.5987 61.0213 67.5987 61.5704 67.0491Z" fill="#31572C"/>
<path d="M94.5159 67.0491C95.8455 67.0524 97.1681 67.0784 98.4968 67.1178C98.8712 67.1164 99.2456 67.1149 99.6314 67.1135C100.736 67.1564 100.736 67.1564 102.752 67.5987C104.116 69.2775 104.116 69.2775 104.949 70.8961C101.58 71.1831 99.089 70.3947 96.1631 68.6978C95.1937 67.7983 95.1937 67.7983 94.5159 67.0491Z" fill="#31572C"/>
<path d="M113.734 71.4458C114.832 72.545 114.832 72.545 114.935 74.7089C114.921 76.2142 114.77 77.1285 114.283 78.5904C114.245 79.6317 114.237 80.6742 114.249 81.7161C114.254 82.2623 114.259 82.8085 114.264 83.3713C114.27 83.7886 114.277 84.2058 114.283 84.6358C113.47 83.9466 113.47 83.9466 112.636 82.987C112.323 79.0419 113.001 75.3172 113.734 71.4458Z" fill="#31572C"/>
<path d="M96.7123 71.9954C98.7055 72.3581 100.699 72.7208 102.752 73.0945C102.752 73.4572 102.752 73.82 102.752 74.1937C101.216 74.9627 100.059 74.8821 98.3596 74.7433C97.33 73.9876 97.33 73.9876 96.7123 73.0945C96.7123 72.7318 96.7123 72.3691 96.7123 71.9954Z" fill="#31572C"/>
<path d="M156.014 76.392C159.362 76.2706 162.173 76.3855 165.349 77.4911C165.349 77.6725 165.349 77.8539 165.349 78.0407C162.053 78.1607 159.203 77.769 156.014 76.9415C156.014 76.7602 156.014 76.5788 156.014 76.392Z" fill="#31572C"/>
<path d="M152.17 89.0325C152.17 89.5766 152.17 90.1206 152.17 90.6812C151.627 90.9533 151.627 90.9533 151.072 91.2308C151.435 90.5054 151.797 89.7799 152.17 89.0325Z" fill="#31572C"/>
<path d="M38.5086 93.4292C38.6898 93.7919 38.871 94.1546 39.0577 94.5284C38.5481 94.9251 38.0384 95.3218 37.5134 95.7306C35.9892 96.9929 35.0283 98.2484 34.1159 100.024C33.9347 99.6615 33.7535 99.2987 33.5668 98.925C34.6071 96.1074 35.9367 94.9165 38.5086 93.4292Z" fill="#31572C"/>
<path d="M115.381 98.9248C118.623 103.792 118.881 110.56 118.882 116.237C118.883 116.735 118.883 117.233 118.884 117.747C118.832 120.956 118.367 123.843 117.578 126.953C117.396 126.953 117.215 126.953 117.029 126.953C117.034 126.586 117.04 126.219 117.046 125.84C117.147 118.413 117.003 111.221 115.93 103.871C115.811 102.853 115.696 101.834 115.587 100.814C115.519 100.191 115.451 99.5671 115.381 98.9248Z" fill="#31572C"/>
<path d="M54.9814 103.321C57.7197 105.471 59.7463 107.655 61.6391 110.569C62.1551 111.341 62.6714 112.113 63.1877 112.885C63.4568 113.292 63.726 113.698 64.0033 114.117C65.55 116.441 67.1317 118.742 68.7086 121.045C69.0117 121.49 69.3147 121.935 69.6269 122.394C69.9128 122.813 70.1986 123.232 70.4932 123.664C70.7452 124.034 70.9971 124.404 71.2568 124.786C72.0308 125.894 72.8341 126.975 73.6504 128.052C73.3786 128.597 73.3786 128.597 73.1014 129.152C67.9078 124.392 64.1932 118.353 60.3109 112.524C59.6367 111.513 58.9585 110.505 58.2802 109.497C57.8495 108.852 57.4191 108.207 56.989 107.561C56.6029 106.984 56.2167 106.406 55.8189 105.811C54.9814 104.42 54.9814 104.42 54.9814 103.321Z" fill="#31572C"/>
<path d="M50.5886 109.917C51.1377 112.115 51.1377 112.115 51.1377 112.115L50.5886 109.917Z" fill="#31572C"/>
<path d="M84.6322 140.693C88.0325 143.987 91.1328 147.568 94.2413 151.135C94.5513 151.489 94.8614 151.844 95.1808 152.209C95.8732 153.002 96.5621 153.798 97.2485 154.596C104.272 162.623 112.07 169.026 121.756 173.582C123.069 174.218 123.069 174.218 124.716 175.317C121.324 175.049 118.737 174.264 115.69 172.775C115.281 172.578 114.872 172.382 114.451 172.179C111.322 170.632 108.691 168.801 106.047 166.523C104.852 165.645 103.649 164.78 102.441 163.919C102.181 163.691 101.922 163.462 101.654 163.226C101.654 162.863 101.654 162.501 101.654 162.127C101.349 162.004 101.044 161.882 100.73 161.755C94.0897 157.956 88.3417 148.322 84.6322 141.792C84.6322 141.43 84.6322 141.067 84.6322 140.693Z" fill="#31572C"/>
<path d="M52.785 143.441C52.9662 143.441 53.1474 143.441 53.3341 143.441C53.436 144.008 53.5379 144.574 53.6429 145.158C55.2747 151.589 58.8713 158.18 64.599 161.717C65.9385 162.504 67.2947 163.252 68.6679 163.979C70.3559 164.875 70.3559 164.875 72.0032 165.974C66.4226 165.669 62.0383 162.902 58.2759 158.829C54.7246 154.192 52.3994 149.359 52.785 143.441Z" fill="#31572C"/>
<path d="M130.207 153.883C131.533 155.21 131.711 156.274 131.916 158.11C131.804 160.408 130.733 162.329 129.658 164.325C128.976 162.278 129.43 161.871 130.207 159.928C130.338 158.336 130.338 158.336 130.275 156.734C130.265 156.197 130.256 155.661 130.245 155.109C130.233 154.704 130.22 154.3 130.207 153.883Z" fill="#31572C"/>
<path d="M129.658 193.453C130.02 193.634 130.382 193.816 130.756 194.002C131.113 202.963 129.343 211.386 123.377 218.39C122.913 218.866 122.449 219.342 121.97 219.833C121.608 219.651 121.246 219.47 120.872 219.283C121.151 218.843 121.43 218.402 121.717 217.948C126.4 210.308 128.895 202.373 129.658 193.453Z" fill="#31572C"/>
<path d="M137.345 213.788C137.526 213.788 137.707 213.788 137.894 213.788C138.749 230.851 133.877 248.124 127.461 263.8C126.721 261.753 127.112 260.363 127.684 258.297C127.865 257.629 128.045 256.96 128.231 256.272C128.329 255.915 128.427 255.559 128.529 255.191C130.344 248.579 131.955 241.932 133.364 235.221C133.443 234.844 133.523 234.467 133.604 234.078C135.011 227.342 136.243 220.58 137.345 213.788Z" fill="#31572C"/>
<path d="M110.989 221.481C112.087 222.031 112.087 222.031 112.087 222.031L110.989 221.481Z" fill="#31572C"/>
<path d="M102.203 261.052C116.851 283.043 108.398 330.367 103.814 354.003C101.035 367.736 97.0689 381.294 91.2213 394.05C90.5023 391.704 91.0534 390.586 92.0107 388.314C99.9043 368.428 103.384 346.062 104.949 324.803C104.98 324.382 105.012 323.96 105.045 323.526C106.437 304.106 105.195 284.729 102.752 265.448C102.644 264.582 102.536 263.716 102.428 262.851C102.354 262.257 102.28 261.663 102.203 261.052Z" fill="#31572C"/>
<path d="M54.4322 293.477C56.3282 294.911 57.0606 295.822 57.7268 298.114C57.7268 300.396 57.3595 301.49 56.0795 303.369C54.1811 304.858 52.449 305.469 50.0395 305.568C48.1442 304.911 47.0839 304.399 45.9213 302.751C45.5135 300.404 45.8874 298.439 46.745 296.225C49.0736 293.356 50.8246 292.466 54.4322 293.477ZM48.9413 297.083C48.1633 298.982 48.4603 300.307 48.9413 302.27C50.4781 303.039 51.6346 302.958 53.3341 302.82C54.4322 302.27 54.4322 302.27 54.9813 301.171C55.2146 298.93 55.1531 298.131 53.8831 296.225C51.2239 295.877 51.2239 295.877 48.9413 297.083Z" fill="#31572C"/>
<path d="M54.9813 310.514C56.4595 311.439 56.9867 312.073 57.4844 313.738C57.8386 315.675 57.8498 316.817 57.0747 318.655C54.8516 321.34 54.8516 321.34 52.7399 321.701C50.383 321.846 49.2632 321.734 47.2941 320.338C46.0664 318.571 45.6905 317.603 45.6468 315.46C46.1616 313.605 46.1616 313.605 46.745 312.163C47.1074 312.163 47.4698 312.163 47.8432 312.163C47.8432 311.8 47.8432 311.437 47.8432 311.063C50.2908 309.627 52.2877 309.845 54.9813 310.514ZM50.0395 312.712C48.7757 314.61 48.752 315.431 48.9413 317.658C49.9744 318.917 49.9744 318.917 51.6525 318.964C53.3545 318.915 53.3545 318.915 54.3979 317.83C55.133 316.229 54.9551 315.468 54.4322 313.811C54.251 313.449 54.0698 313.086 53.8832 312.712C52.0072 312.575 52.0072 312.575 50.0395 312.712Z" fill="#31572C"/>
<path d="M54.4322 327.001C56.0739 328.144 56.9722 328.995 57.5059 330.953C57.8432 333.309 57.91 334.819 56.6286 336.894C54.6014 338.615 52.7007 338.856 50.1253 338.779C48.2121 338.397 47.343 337.301 46.1959 335.794C45.2324 333.866 45.6749 331.789 46.1959 329.749C48.6675 326.624 50.5892 326.073 54.4322 327.001ZM48.9756 329.783C48.0253 331.518 48.4764 332.834 48.9413 334.695C49.5489 335.808 49.5489 335.808 50.5886 336.344C52.6469 336.602 53.2064 336.429 54.9813 335.245C55.583 333.694 55.583 333.694 55.5304 331.947C54.7569 330.304 54.7569 330.304 53.334 329.199C51.5575 328.909 50.5597 328.914 48.9756 329.783Z" fill="#31572C"/>
<path d="M137.345 336.894C137.526 336.894 137.707 336.894 137.894 336.894C137.592 343.003 136.894 348.986 135.972 355.03C135.902 355.496 135.831 355.962 135.759 356.443C118.732 468.371 118.732 468.371 92.3195 488.029C93.0204 486.191 93.8102 484.486 94.7732 482.773C95.0388 482.296 95.3044 481.819 95.578 481.327C95.8617 480.818 96.1454 480.309 96.4377 479.785C108.556 457.733 116.029 434.04 122.167 409.736C122.501 408.412 122.839 407.09 123.176 405.767C128.206 385.95 131.748 365.775 135.534 345.692C135.616 345.262 135.697 344.832 135.781 344.389C135.931 343.592 136.081 342.795 136.231 341.998C136.556 340.282 136.895 338.581 137.345 336.894Z" fill="#31572C"/>
<path d="M53.3341 342.39C55.3811 343.801 56.2426 345.198 56.9031 347.542C57.3695 350.209 56.9517 351.636 55.5304 353.931C54.0425 355.179 53.086 355.535 51.172 355.82C49.0443 355.516 47.8683 354.705 46.1959 353.381C45.1837 351.355 45.4512 349.003 45.6468 346.786C47.1932 343.149 49.3967 341.837 53.3341 342.39ZM49.0443 345.687C48.0636 347.34 47.9101 348.725 47.8431 350.633C48.3282 352.029 48.3282 352.029 49.4904 352.832C51.1377 353.198 51.1377 353.198 52.785 352.832C53.9472 352.029 53.9472 352.029 54.4322 350.633C54.3065 348.808 54.1549 347.33 53.3341 345.687C51.1386 345.028 51.1386 345.028 49.0443 345.687Z" fill="#31572C"/>
<path d="M53.8831 359.427C57.0233 362.151 57.0233 362.151 57.3278 364.366C57.4281 366.663 57.3729 367.901 56.1481 369.903C53.7403 371.397 51.7056 371.472 48.9413 370.968C47.3301 369.98 46.4857 369.35 45.6468 367.67C45.4302 365.07 45.398 363.772 46.5733 361.419C48.7766 358.916 50.6912 358.428 53.8831 359.427ZM49.0786 362.209C47.731 363.716 47.731 363.716 47.5343 365.506C47.7417 367.156 47.7417 367.156 48.7354 368.46C50.0186 369.487 50.0186 369.487 51.7554 369.25C53.3872 368.889 53.3872 368.889 54.4322 367.67C54.7476 364.786 54.7476 364.786 53.7458 362.209C51.6814 360.954 51.1446 360.658 49.0786 362.209Z" fill="#31572C"/>
<path d="M53.8831 375.914C55.7911 377.052 57.0368 378.176 57.7268 380.311C57.9988 382.444 57.9072 383.328 56.7315 385.154C55.172 386.715 54.2139 386.881 52.0299 387.043C49.8945 386.896 48.9502 386.583 47.294 385.257C46.0195 383.617 45.9253 381.797 45.9942 379.746C46.1958 378.662 46.1958 378.662 47.2597 377.013C49.5137 375.54 51.2601 375.395 53.8831 375.914ZM48.9413 381.41C48.7601 381.954 48.5789 382.498 48.3922 383.059C48.9358 383.875 48.9358 383.875 49.4904 384.707C51.2269 384.929 52.3128 385.007 53.8145 384.055C54.6232 382.751 54.5542 381.817 54.4322 380.311C52.3285 380.19 50.8168 380.419 48.9413 381.41Z" fill="#31572C"/>
<path d="M54.4322 392.402C56.945 394.134 56.945 394.134 57.7268 395.699C57.9706 397.847 57.802 398.857 56.7659 400.783C54.9656 402.985 54.9656 402.985 53.3341 403.393C50.695 403.351 49.473 403.21 47.2941 401.71C46.0545 399.888 45.8179 398.916 45.9642 396.76C46.341 395.035 47.1101 394.131 48.3922 392.951C50.5496 391.701 52.0552 391.708 54.4322 392.402ZM49.4904 394.05C48.2205 395.957 48.159 396.756 48.3922 398.997C48.9413 400.096 48.9413 400.096 50.0395 400.645C51.6868 401.012 51.6868 401.012 53.3341 400.645C54.5849 399.567 54.5849 399.567 54.9813 397.898C54.6085 396.464 54.0351 395.376 53.3341 394.05C51.4581 393.913 51.4581 393.913 49.4904 394.05Z" fill="#31572C"/>
<path d="M53.8832 407.79C55.472 408.655 56.653 409.627 57.7268 411.087C58.3152 413.245 57.9283 415.02 57.0404 417.064C55.9894 418.341 55.4585 418.849 53.8832 419.331C51.1473 419.58 49.4579 419.427 47.2941 417.682C45.9054 416.014 45.6468 415.199 45.6468 413.011C46.2971 410.733 47.1171 409.817 48.9413 408.339C50.8302 407.709 51.9014 407.523 53.8832 407.79ZM48.3922 412.186C47.7273 414.183 48.025 414.749 48.9413 416.583C50.5198 417.373 51.5874 417.342 53.3341 417.133C54.6871 415.921 54.6871 415.921 55.5304 414.385C55.5304 413.841 55.5304 413.297 55.5304 412.736C53.1748 412.555 50.8192 412.373 48.3922 412.186Z" fill="#31572C"/>
<path d="M134.599 411.637C134.781 411.637 134.962 411.637 135.149 411.637C135.146 412.073 135.144 412.508 135.141 412.957C135.119 417.119 135.102 421.28 135.092 425.442C135.086 427.58 135.078 429.718 135.066 431.856C134.924 449.213 134.924 449.213 137.414 466.355C137.528 466.871 137.642 467.387 137.76 467.919C139.215 474.095 141.378 480.335 144.653 485.796C145.112 486.629 145.112 486.629 145.581 487.479C145.4 487.842 145.219 488.205 145.032 488.578C136.479 482.072 134.427 471.19 132.952 461.099C132.511 457.759 132.304 454.463 132.272 451.095C132.267 450.62 132.262 450.145 132.256 449.655C132.243 448.111 132.236 446.568 132.232 445.024C132.229 444.497 132.227 443.969 132.225 443.426C132.205 432.721 133.158 422.235 134.599 411.637Z" fill="#31572C"/>
<path d="M53.3341 424.277C55.7195 425.517 57.2095 426.733 58.2759 429.223C58.5504 430.872 58.5504 430.872 58.2759 432.521C57.0829 433.935 56.0905 434.989 54.4323 435.818C52.4153 435.892 50.864 435.91 48.9413 435.269C48.9413 434.906 48.9413 434.543 48.9413 434.17C48.3977 433.988 47.8541 433.807 47.2941 433.62C45.9074 431.721 45.9561 429.855 46.1959 427.575C48.2259 424.459 49.6548 423.97 53.3341 424.277ZM50.2111 427.643C48.7418 429.118 48.7418 429.118 49.01 431.01C49.3429 432.457 49.3429 432.457 50.0395 433.071C52.6119 433.296 52.6119 433.296 54.9813 432.452C55.6637 431.374 55.6637 431.374 55.4961 429.773C54.9157 427.914 54.4686 427.395 52.785 426.476C51.5168 426.362 51.5168 426.362 50.2111 427.643Z" fill="#31572C"/>
<path d="M54.9813 441.314C56.6205 442.492 57.0792 443.204 57.6924 445.127C57.7342 447.174 57.3313 447.959 56.0795 449.558C54.393 451.188 52.9178 451.613 50.5886 451.756C48.7235 451.235 47.283 450.64 46.1959 449.008C45.54 446.339 45.3392 445.251 46.539 442.757C49.1831 439.832 51.4926 439.897 54.9813 441.314ZM49.3874 443.066C48.1361 444.318 47.9288 445.052 47.8431 446.81C48.0675 448.084 48.0675 448.084 48.9413 449.008C50.8821 449.656 51.8898 449.686 53.8145 448.974C55.1341 447.983 55.1341 447.983 55.2902 446.295C54.9192 444.273 54.4382 443.608 52.7849 442.413C50.6825 442.238 50.6825 442.238 49.3874 443.066Z" fill="#31572C"/>
<path d="M55.5304 457.252C56.9919 458.902 57.6392 460.024 58.0013 462.198C57.6457 464.334 56.918 465.493 55.5304 467.145C53.8406 468.196 52.8629 468.245 50.8631 468.209C48.4969 467.575 47.6031 466.952 46.1959 464.946C45.7377 462.784 46.0048 461.056 46.7793 459.004C49.3384 456.112 52.0959 455.631 55.5304 457.252ZM48.9413 459.76C48.1554 461.677 48.4285 462.966 48.9413 464.946C50.4875 466.212 50.4875 466.212 52.2358 465.977C53.8932 465.618 53.8932 465.618 54.947 464.568C55.7421 462.836 55.4919 461.808 54.9813 460C53.9167 458.705 53.9167 458.705 51.9956 458.695C50.0668 458.723 50.0668 458.723 48.9413 459.76Z" fill="#31572C"/>
<path d="M53.8832 472.64C55.4592 473.626 56.3493 474.28 57.1777 475.938C57.497 479.901 57.497 479.901 56.2168 481.64C55.8091 481.935 55.4014 482.229 54.9813 482.533C54.6529 482.771 54.3245 483.009 53.9861 483.254C52.1156 483.843 50.8235 483.578 48.9413 483.083C46.996 481.643 46.313 480.745 45.6468 478.411C45.6468 476.253 45.9612 475.407 47.2941 473.74C49.5006 472.267 51.2895 472.258 53.8832 472.64ZM49.6277 475.457C48.2059 476.933 48.2059 476.933 48.4266 478.789C48.8313 480.388 48.8313 480.388 50.0395 481.434C51.6868 481.617 51.6868 481.617 53.3341 481.434C54.6674 480.337 54.6674 480.337 54.6038 478.171C54.5664 476.694 54.5335 476.092 53.7116 474.839C51.9237 473.778 51.2068 474.236 49.6277 475.457Z" fill="#31572C"/>
</svg>
